PathFileType  4	(X/Y/Z) C:\Inversekin\DARPA\DARPA11\Files_W_HJCs\
DataRate	CameraRate	NumFrames	NumMarkers	Units	OrigDataRate	OrigDataStartFrame	OrigNumFrames
  100.0		  100.0		    10		     41		 mm	  100.0	      96	    153
Frame#	Time	R.Shoulder			L.Shoulder			R.Clavicle			L.Clavicle			R.Biceps			R.Elbow			R.Forearm			R.Wrist			L.Biceps			L.Elbow			L.Forearm			L.Wrist			R.ASIS			L.ASIS			R.PSIS			S2			L.PSIS			R.TH1			R.TH2			R.TH3			R.Knee			R.SH1			R.SH2			R.SH3			R.SH4			R.Ankle			R.Heel			R.MT5			R.Toe			L.TH1			L.TH2			L.TH3			L.TH4			L.Knee			L.SH1			L.SH2			L.SH3			L.Ankle			L.Heel			L.MT5			L.Toe			
		X1	Y1	Z1	X2	Y2	Z2	X3	Y3	Z3	X4	Y4	Z4	X5	Y5	Z5	X6	Y6	Z6	X7	Y7	Z7	X8	Y8	Z8	X9	Y9	Z9	X10	Y10	Z10	X11	Y11	Z11	X12	Y12	Z12	X13	Y13	Z13	X14	Y14	Z14	X15	Y15	Z15	X16	Y16	Z16	X17	Y17	Z17	X18	Y18	Z18	X19	Y19	Z19	X20	Y20	Z20	X21	Y21	Z21	X22	Y22	Z22	X23	Y23	Z23	X24	Y24	Z24	X25	Y25	Z25	X26	Y26	Z26	X27	Y27	Z27	X28	Y28	Z28	X29	Y29	Z29	X30	Y30	Z30	X31	Y31	Z31	X32	Y32	Z32	X33	Y33	Z33	X34	Y34	Z34	X35	Y35	Z35	X36	Y36	Z36	X37	Y37	Z37	X38	Y38	Z38	X39	Y39	Z39	X40	Y40	Z40	X41	Y41	Z41	

96	0.95000	409.375	1565.505	-298.709	678.341	1568.420	-289.293	507.799	1507.116	-191.366	564.837	1508.438	-189.285	203.555	1572.905	-314.415	115.933	1600.004	-362.079	111.848	1585.481	-210.532	101.020	1566.311	-96.265	859.547	1543.450	-312.271	981.074	1542.769	-324.459	992.472	1566.770	-181.203	990.396	1570.122	-70.120	408.164	1021.965	-159.741	663.859	1012.247	-175.639	479.567	1036.526	-374.924	522.659	1015.281	-391.422	570.913	1034.675	-380.615	314.745	795.907	-206.009	310.623	790.801	-314.920	323.246	662.200	-318.947	326.038	529.210	-277.310	308.523	437.571	-267.729	289.068	326.774	-274.324	306.104	438.497	-351.954	293.820	318.944	-359.026	294.875	114.006	-314.006	337.454	37.886	-390.998	252.399	34.141	-201.108	350.734	56.307	-91.496	708.713	793.641	-171.132	701.066	662.196	-184.410	752.873	811.434	-266.899	735.582	679.210	-296.880	710.888	532.017	-295.539	716.990	426.963	-273.252	739.848	445.886	-365.978	747.731	330.173	-380.399	753.155	115.857	-331.543	706.642	36.482	-416.537	801.592	39.764	-230.965	712.652	58.271	-120.687
97	0.96000	409.401	1565.614	-298.748	678.319	1568.370	-289.488	507.830	1507.191	-191.476	564.787	1508.508	-189.402	203.529	1573.099	-314.241	115.948	1600.296	-361.855	111.916	1585.899	-210.275	101.212	1566.933	-95.924	859.562	1543.610	-312.288	981.169	1543.152	-324.306	992.038	1566.788	-180.944	989.821	1570.093	-69.921	408.219	1022.018	-159.730	663.990	1012.190	-175.784	479.680	1036.474	-374.983	522.700	1015.195	-391.435	571.000	1034.595	-380.666	314.783	795.811	-205.949	310.619	790.897	-314.867	323.079	662.458	-318.796	326.054	529.336	-277.274	308.535	437.660	-267.710	289.102	326.881	-274.298	306.245	438.573	-351.924	293.850	319.021	-359.012	294.923	114.105	-313.987	337.503	37.990	-391.000	252.405	34.186	-201.100	350.840	56.315	-91.490	708.747	793.549	-171.212	701.092	662.110	-184.460	752.879	811.367	-266.969	735.404	679.066	-296.993	710.890	531.896	-295.586	717.106	426.933	-273.225	739.850	445.841	-365.997	747.720	330.150	-380.406	753.162	115.833	-331.537	706.722	36.473	-416.530	801.618	39.705	-230.960	712.788	58.307	-120.658
98	0.97000	409.427	1565.651	-298.808	678.395	1568.272	-289.642	508.162	1507.230	-191.629	564.728	1508.446	-189.562	203.559	1573.278	-314.128	116.051	1600.508	-361.657	111.712	1586.428	-209.915	101.271	1567.413	-95.565	859.631	1543.735	-312.294	981.279	1543.387	-324.192	991.701	1566.855	-180.722	989.061	1569.973	-69.686	408.366	1022.097	-159.757	664.052	1012.160	-175.871	479.634	1036.517	-374.999	522.690	1015.226	-391.514	571.087	1034.613	-380.706	314.793	795.872	-205.886	310.621	790.914	-314.815	323.078	662.514	-318.769	326.167	529.340	-277.177	308.534	437.650	-267.696	289.128	326.921	-274.277	306.254	438.614	-351.901	293.859	319.053	-358.986	294.916	114.106	-313.993	337.582	37.977	-391.014	252.421	34.258	-201.118	350.919	56.249	-91.484	708.816	793.581	-171.283	701.124	662.102	-184.482	752.877	811.311	-267.042	735.397	678.975	-297.041	710.896	531.857	-295.616	717.018	426.841	-273.273	739.871	445.762	-366.016	747.740	330.057	-380.423	753.210	115.724	-331.532	706.823	36.397	-416.524	801.649	39.613	-230.978	712.860	58.264	-120.654
99	0.98000	409.456	1565.647	-298.887	678.399	1568.156	-289.788	508.187	1507.193	-191.743	564.727	1508.406	-189.704	203.651	1573.367	-313.972	116.024	1600.742	-361.411	111.917	1586.670	-209.597	101.520	1567.882	-95.168	859.715	1543.780	-312.252	981.271	1543.602	-324.005	991.304	1566.962	-180.524	988.704	1569.853	-69.602	408.547	1022.021	-159.688	664.202	1012.031	-176.015	479.706	1036.441	-375.023	522.686	1015.050	-391.545	571.163	1034.483	-380.770	314.800	795.884	-205.829	310.579	790.963	-314.735	323.054	662.494	-318.730	326.155	529.265	-277.159	308.551	437.652	-267.678	289.112	326.871	-274.259	306.247	438.602	-351.889	293.831	319.025	-358.980	294.911	114.110	-313.991	337.565	37.978	-391.001	252.399	34.244	-201.115	350.893	56.169	-91.493	708.849	793.462	-171.359	701.165	662.020	-184.533	752.919	811.301	-267.125	735.446	678.954	-297.074	710.869	531.757	-295.642	717.073	426.735	-273.318	739.883	445.659	-366.045	747.757	329.987	-380.427	753.139	115.696	-331.557	706.871	36.329	-416.508	801.685	39.504	-231.003	712.899	58.189	-120.656
100	0.99000	409.433	1565.610	-298.966	678.342	1568.069	-289.949	508.153	1507.109	-191.906	564.912	1508.308	-189.915	203.564	1573.507	-313.848	115.902	1600.752	-361.131	111.901	1586.906	-209.330	101.638	1568.258	-94.856	859.684	1543.863	-312.230	981.363	1543.739	-323.846	990.997	1566.949	-180.452	988.011	1569.819	-69.454	408.517	1021.969	-159.688	664.268	1011.999	-176.108	479.482	1036.304	-375.022	522.573	1015.023	-391.568	571.093	1034.367	-380.827	314.789	795.835	-205.770	310.532	790.836	-314.702	323.017	662.508	-318.693	326.138	529.222	-277.125	308.532	437.566	-267.677	289.081	326.803	-274.240	306.130	438.587	-351.851	293.762	319.021	-358.906	294.900	114.033	-313.983	337.560	37.830	-390.998	252.373	34.172	-201.102	350.955	56.057	-91.486	708.896	793.361	-171.402	701.209	661.996	-184.584	752.918	811.206	-267.189	735.280	678.852	-297.155	710.718	531.573	-295.715	717.110	426.655	-273.346	739.880	445.625	-366.058	747.804	329.842	-380.435	753.190	115.570	-331.556	706.856	36.197	-416.508	801.701	39.436	-231.003	712.925	58.052	-120.667
101	1.00000	409.409	1565.486	-299.074	678.335	1568.027	-290.103	508.206	1507.018	-192.079	564.848	1508.211	-190.040	203.552	1573.494	-313.775	115.814	1600.816	-360.843	112.168	1587.246	-209.070	101.913	1568.537	-94.561	859.609	1543.810	-312.181	981.308	1543.748	-323.721	990.784	1566.930	-180.366	987.318	1569.803	-69.402	408.489	1021.860	-159.687	664.315	1011.963	-176.205	479.261	1036.156	-375.032	522.507	1014.845	-391.583	570.982	1034.245	-380.871	314.905	795.731	-205.710	310.504	790.776	-314.626	322.974	662.425	-318.653	326.123	529.002	-277.075	308.488	437.484	-267.677	289.041	326.690	-274.210	306.077	438.393	-351.840	293.707	318.901	-358.882	294.862	113.956	-313.999	337.487	37.697	-391.002	252.321	34.055	-201.100	350.883	55.864	-91.462	709.034	793.429	-171.460	701.393	662.038	-184.606	752.995	811.161	-267.285	735.307	678.741	-297.210	710.683	531.502	-295.751	717.133	426.604	-273.395	739.893	445.518	-366.064	747.813	329.768	-380.441	753.200	115.544	-331.555	706.841	36.087	-416.508	801.714	39.387	-230.995	713.011	57.999	-120.656
102	1.01000	409.413	1565.368	-299.164	678.399	1567.899	-290.213	508.315	1507.055	-192.164	564.856	1508.131	-190.169	203.491	1573.487	-313.669	115.702	1600.752	-360.631	112.160	1587.407	-208.923	102.087	1568.877	-94.372	859.557	1543.792	-312.163	981.225	1543.719	-323.628	990.558	1566.991	-180.312	986.712	1569.795	-69.289	408.453	1021.749	-159.721	664.378	1011.856	-176.313	478.964	1036.059	-375.133	522.431	1014.641	-391.618	570.956	1034.049	-380.914	314.900	795.643	-205.668	310.256	790.642	-314.546	322.901	662.258	-318.591	326.123	528.838	-277.038	308.442	437.362	-267.640	288.961	326.531	-274.189	306.033	438.267	-351.826	293.707	318.901	-358.869	294.837	113.923	-313.971	337.399	37.565	-390.982	252.296	33.951	-201.109	350.820	55.782	-91.462	709.065	793.376	-171.510	701.425	661.952	-184.646	752.830	811.069	-267.367	735.330	678.628	-297.244	710.516	531.293	-295.828	717.168	426.512	-273.377	739.890	445.477	-366.085	747.694	329.642	-380.487	753.227	115.504	-331.553	706.774	35.971	-416.496	801.741	39.335	-231.000	712.880	57.792	-120.685
103	1.02000	409.410	1565.262	-299.242	678.474	1567.820	-290.397	508.257	1506.914	-192.300	564.766	1508.087	-190.259	203.499	1573.475	-313.574	115.534	1600.730	-360.418	112.340	1587.578	-208.768	102.325	1569.059	-94.173	859.561	1543.759	-312.157	981.132	1543.645	-323.557	990.320	1566.976	-180.237	986.007	1569.775	-69.211	408.442	1021.672	-159.748	664.400	1011.856	-176.413	478.941	1035.918	-375.178	522.212	1014.520	-391.724	570.576	1033.771	-381.025	314.872	795.522	-205.649	310.124	790.534	-314.493	322.851	662.183	-318.555	326.107	528.736	-277.036	308.555	437.143	-267.589	288.896	326.409	-274.174	305.986	438.107	-351.802	293.651	318.777	-358.847	294.784	113.798	-313.965	337.295	37.447	-390.986	252.288	33.830	-201.123	350.778	55.663	-91.466	709.094	793.404	-171.570	701.503	662.077	-184.749	752.942	811.080	-267.476	735.495	678.685	-297.310	710.522	531.280	-295.838	717.153	426.541	-273.391	739.898	445.435	-366.094	747.663	329.651	-380.512	753.231	115.498	-331.546	706.698	35.872	-416.502	801.749	39.291	-231.011	712.786	57.740	-120.691
104	1.03000	409.402	1565.195	-299.303	678.407	1567.790	-290.526	508.181	1506.629	-192.471	564.804	1508.035	-190.360	203.481	1573.489	-313.501	115.482	1600.652	-360.240	112.513	1587.645	-208.611	102.509	1569.472	-93.946	859.510	1543.754	-312.163	981.080	1543.577	-323.509	989.913	1567.023	-180.189	985.483	1569.916	-69.163	408.408	1021.594	-159.773	664.520	1012.043	-176.578	478.667	1035.880	-375.225	522.060	1014.474	-391.773	570.316	1033.704	-381.134	314.893	795.362	-205.601	310.080	790.437	-314.446	322.826	662.075	-318.522	326.097	528.658	-277.009	308.560	437.120	-267.558	288.844	326.342	-274.163	305.970	438.066	-351.789	293.613	318.706	-358.816	294.748	113.716	-313.954	337.260	37.351	-390.974	252.136	33.783	-201.117	350.721	55.652	-91.472	709.095	793.414	-171.596	701.505	662.106	-184.768	752.935	811.144	-267.545	735.412	678.774	-297.336	710.498	531.379	-295.840	717.133	426.639	-273.419	739.711	445.407	-366.124	747.663	329.636	-380.525	753.221	115.511	-331.551	706.561	35.790	-416.510	801.744	39.310	-230.992	712.711	57.704	-120.695
105	1.04000	409.308	1565.172	-299.373	678.323	1567.782	-290.700	508.245	1506.602	-192.574	564.720	1508.018	-190.499	203.495	1573.463	-313.408	115.546	1600.623	-360.102	112.598	1587.850	-208.459	102.619	1569.864	-93.763	859.486	1543.784	-312.147	980.998	1543.569	-323.468	989.491	1567.120	-180.125	984.646	1569.973	-69.121	408.416	1021.592	-159.802	664.581	1012.103	-176.708	478.697	1035.794	-375.266	522.046	1014.345	-391.832	570.270	1033.646	-381.226	314.887	795.343	-205.592	310.068	790.378	-314.434	322.822	662.091	-318.489	326.096	528.653	-276.993	308.543	437.073	-267.558	288.831	326.399	-274.106	305.946	438.017	-351.762	293.574	318.642	-358.795	294.734	113.673	-313.946	337.251	37.348	-390.973	252.145	33.737	-201.121	350.648	55.682	-91.484	709.092	793.449	-171.664	701.546	662.254	-184.880	752.957	811.378	-267.591	735.325	678.813	-297.391	710.479	531.417	-295.855	717.124	426.653	-273.433	739.669	445.462	-366.152	747.624	329.717	-380.552	753.165	115.618	-331.562	706.478	35.812	-416.523	801.734	39.362	-231.002	712.723	57.745	-120.686
